HIERARCHY
ROOT root
{
	OFFSET 0.00 0.00 0.00
	CHANNELS 6 Xposition Yposition Zposition Zrotation Xrotation Yrotation
	JOINT lowerback
	{
		OFFSET 0 0 0
		CHANNELS 6 Xposition Yposition Zposition Zrotation Xrotation Yrotation
		JOINT upperback
		{
			OFFSET -0.214371 12.3768 -1.12219
			CHANNELS 6 Xposition Yposition Zposition Zrotation Xrotation Yrotation
			JOINT thorax
			{
				OFFSET -0.00137213 12.3873 0.296195
				CHANNELS 6 Xposition Yposition Zposition Zrotation Xrotation Yrotation
				JOINT lowerneck
				{
					OFFSET 0.0883157 12.5016 0.82912
					CHANNELS 6 Xposition Yposition Zposition Zrotation Xrotation Yrotation
					JOINT upperneck
					{
						OFFSET -1 10.1794 0.943522
						CHANNELS 6 Xposition Yposition Zposition Zrotation Xrotation Yrotation
						JOINT head
						{
							OFFSET 0.667525 10.2797 -1.57149
							CHANNELS 6 Xposition Yposition Zposition Zrotation Xrotation Yrotation
							End Site
							{
								OFFSET 0 0 0
							}
						}
					}
				}
				JOINT lclavicle
				{
					OFFSET 0.0883157 12.5016 0.82912
					CHANNELS 6 Xposition Yposition Zposition Zrotation Xrotation Yrotation
					JOINT lhumerus
					{
						OFFSET 20.61 4.45006 1.43784
						CHANNELS 6 Xposition Yposition Zposition Zrotation Xrotation Yrotation
						JOINT lradius
						{
							OFFSET 0 -30.3438 0
							CHANNELS 6 Xposition Yposition Zposition Zrotation Xrotation Yrotation
							JOINT lwrist
							{
								OFFSET 0 -18.964 0
								CHANNELS 6 Xposition Yposition Zposition Zrotation Xrotation Yrotation
								JOINT lhand
								{
									OFFSET 0 -9.48199 0
									CHANNELS 6 Xposition Yposition Zposition Zrotation Xrotation Yrotation
									JOINT lfingers
									{
										OFFSET 0 -3.17138 0
										CHANNELS 6 Xposition Yposition Zposition Zrotation Xrotation Yrotation
										End Site
										{
											OFFSET 0 -2.55685 0
										}
									}
								}
								JOINT lthumb
								{
									OFFSET 0 -9.48199 0
									CHANNELS 6 Xposition Yposition Zposition Zrotation Xrotation Yrotation
									End Site
									{
										OFFSET 0 -3.67114 0
									}
								}
							}
						}
					}
				}
				JOINT rclavicle
				{
					OFFSET 0.0883157 12.5016 0.82912
					CHANNELS 6 Xposition Yposition Zposition Zrotation Xrotation Yrotation
					JOINT rhumerus
					{
						OFFSET -20.61 4.45 1.44
						CHANNELS 6 Xposition Yposition Zposition Zrotation Xrotation Yrotation
						JOINT rradius
						{
							OFFSET 0 -29.5102 0
							CHANNELS 6 Xposition Yposition Zposition Zrotation Xrotation Yrotation
							JOINT rwrist
							{
								OFFSET 0 -19.2342 0
								CHANNELS 6 Xposition Yposition Zposition Zrotation Xrotation Yrotation
								JOINT rhand
								{
									OFFSET 0 -9.61712 0
									CHANNELS 6 Xposition Yposition Zposition Zrotation Xrotation Yrotation
									JOINT rfingers
									{
										OFFSET 0 -3.29215 0
										CHANNELS 6 Xposition Yposition Zposition Zrotation Xrotation Yrotation
										End Site
										{
											OFFSET 0 -2.557 0
										}
									}
								}
								JOINT rthumb
								{
									OFFSET 0 -9.61712 0
									CHANNELS 6 Xposition Yposition Zposition Zrotation Xrotation Yrotation
									End Site
									{
										OFFSET 0 -3.671 0
									}
								}
							}
						}
					}
				}
			}
		}
	}
	JOINT rfemur
	{
		OFFSET -8.46272 -9.62775 4.76248
		CHANNELS 6 Xposition Yposition Zposition Zrotation Xrotation Yrotation
		JOINT rtibia
		{
			OFFSET 1.00552e-005 -38.0331 0
			CHANNELS 6 Xposition Yposition Zposition Zrotation Xrotation Yrotation
			JOINT rfoot
			{
				OFFSET 1.14428e-005 -43.2815 0
				CHANNELS 6 Xposition Yposition Zposition Zrotation Xrotation Yrotation
				JOINT rtoes
				{
					OFFSET 0 -14.1868 -3.08763
					CHANNELS 6 Xposition Yposition Zposition Zrotation Xrotation Yrotation
					End Site
					{
						OFFSET 0 -7.27332 0
					}
				}
			}
		}
	}
	JOINT lfemur
	{
		OFFSET 9.10607 -9.62778 4.76249
		CHANNELS 6 Xposition Yposition Zposition Zrotation Xrotation Yrotation
		JOINT ltibia
		{
			OFFSET -1.01399e-005 -38.3535 0
			CHANNELS 6 Xposition Yposition Zposition Zrotation Xrotation Yrotation
			JOINT lfoot
			{
				OFFSET -1.12937e-005 -42.7176 0
				CHANNELS 6 Xposition Yposition Zposition Zrotation Xrotation Yrotation
				JOINT ltoes
				{
					OFFSET 0 -13.9965 -2.83857
					CHANNELS 6 Xposition Yposition Zposition Zrotation Xrotation Yrotation
					End Site
					{
						OFFSET 0 -7.16348 0
					}
				}
			}
		}
	}
}
MOTION
Frames: 10
Frame Time: 0.00833333
8.7693	88.6816	138.978	-3.20487	15.3008	-11.9259	0 0 0 6.18941	13.6474	-1.18351	-0.214371 12.3768 -1.12219 -1.50267	14.2823	-1.55584	-0.00137213 12.3873 0.296195 -5.21494	7.58404	-0.323507	0.0883157 12.5016 0.82912 0.632086	8.78451	1.00917	-1 10.1794 0.943522 2.39726	-5.59495	1.60546	0.667525 10.2797 -1.57149 0.550336	-3.40271	0.67532	0.0883157 12.5016 0.82912 -15	0	-0	20.61 4.45006 1.43784 41.9956	-63.4871	177.682	0 -30.3438 0 -0	64.6221	-0	0 -18.964 0 1.01323e-015	3.40302e-015	-55.82	0 -9.48199 0 1.22245	4.37968	-2.58917e-014	0 -3.17138 0 -0	7.12502	-0	0 -9.48199 0 25	15	-1.36605e-015	0.0883157 12.5016 0.82912 15	0	-0	-20.61 4.45 1.44 -23.8606	-7.09104	-165.075	0 -29.5102 0 -0	72.0558	-0	0 -19.2342 0 1.33305e-015	-4.11463e-015	125.902	0 -9.61712 0 1.22	4.38	-0	0 -3.29215 0 -0	7.12502	-0	0 -9.61712 0 25	15	-7.97034e-015	-8.46272 -9.62775 4.76248 1.58133	-30.3225	1.54908	1.00552e-005 -38.0331 0 -180	88.8348	180	1.14428e-005 -43.2815 0 14.8901	-66.3357	16.1875	0 -14.1868 -3.08763 -0	-62.463	-0	9.10607 -9.62778 4.76249 4.84848	-57.2163	10.3345	-1.01399e-005 -38.3535 0 -0	62.8792	-0	-1.12937e-005 -42.7176 0 56.4372	-81.4898	56.7287	0 -13.9965 -2.83857 -0	-16.0663	-0
8.79473	88.8227	139.511	-3.02412	14.6099	-12.1229	0 0 0 5.98396	13.5443	-1.18475	-0.214371 12.3768 -1.12219 -1.62215	14.32	-1.57832	-0.00137213 12.3873 0.296195 -5.23513	7.67716	-0.342125	0.0883157 12.5016 0.82912 0.7334	8.73488	1.0476	-1 10.1794 0.943522 2.26917	-4.97353	1.64266	0.667525 10.2797 -1.57149 0.491782	-3.17753	0.703669	0.0883157 12.5016 0.82912 -15	0	-0	20.61 4.45006 1.43784 41.6827	-63.127	177.309	0 -30.3438 0 -0	64.3205	-0	0 -18.964 0 1.01382e-015	3.40215e-015	-55.83	0 -9.48199 0 1.22245	4.37968	-2.58917e-014	0 -3.17138 0 -0	7.12502	-0	0 -9.48199 0 25	15	-1.36605e-015	0.0883157 12.5016 0.82912 15	0	-0	-20.61 4.45 1.44 -23.7807	-7.02053	-164.934	0 -29.5102 0 -0	72.1722	-0	0 -19.2342 0 1.33288e-015	-4.11439e-015	125.9	0 -9.61712 0 1.22	4.38	-0	0 -3.29215 0 -0	7.12502	-0	0 -9.61712 0 25	15	-7.97034e-015	-8.46272 -9.62775 4.76248 1.0218	-32.0981	1.16749	1.00552e-005 -38.0331 0 -180	86.1798	180	1.14428e-005 -43.2815 0 14.6719	-67.4319	15.829	0 -14.1868 -3.08763 -0	-62.9438	-0	9.10607 -9.62778 4.76249 4.64611	-55.9205	10.6944	-1.01399e-005 -38.3535 0 -0	62.7071	-0	-1.12937e-005 -42.7176 0 57.5879	-81.9933	57.8412	0 -13.9965 -2.83857 -0	-15.9875	-0
8.81623	88.9435	140.052	-2.82963	13.8863	-12.2896	0 0 0 5.77385	13.4252	-1.19637	-0.214371 12.3768 -1.12219 -1.74617	14.3513	-1.61386	-0.00137213 12.3873 0.296195 -5.25824	7.77005	-0.367324	0.0883157 12.5016 0.82912 0.854466	8.66774	1.09164	-1 10.1794 0.943522 2.14013	-4.31312	1.68814	0.667525 10.2797 -1.57149 0.42968	-2.93399	0.736061	0.0883157 12.5016 0.82912 -15	0	-0	20.61 4.45006 1.43784 41.3351	-62.7265	176.911	0 -30.3438 0 -0	64.0462	-0	0 -18.964 0 1.01426e-015	3.4015e-015	-55.8374	0 -9.48199 0 1.22245	4.37968	-2.58917e-014	0 -3.17138 0 -0	7.12502	-0	0 -9.48199 0 25	15	-1.36605e-015	0.0883157 12.5016 0.82912 15	0	-0	-20.61 4.45 1.44 -23.6987	-6.89722	-164.799	0 -29.5102 0 -0	72.3362	-0	0 -19.2342 0 1.33267e-015	-4.11411e-015	125.897	0 -9.61712 0 1.22	4.38	-0	0 -3.29215 0 -0	7.12502	-0	0 -9.61712 0 25	15	-7.97034e-015	-8.46272 -9.62775 4.76248 0.409617	-33.8758	0.731242	1.00552e-005 -38.0331 0 -180	83.6349	180	1.14428e-005 -43.2815 0 14.4982	-68.5598	15.525	0 -14.1868 -3.08763 -0	-63.3916	-0	9.10607 -9.62778 4.76249 4.44127	-54.6034	11.1262	-1.01399e-005 -38.3535 0 -0	62.5624	-0	-1.12937e-005 -42.7176 0 58.8105	-82.5422	59.0256	0 -13.9965 -2.83857 -0	-15.943	-0
8.83256	89.0439	140.599	-2.62387	13.1347	-12.4209	0 0 0 5.56115	13.2893	-1.21866	-0.214371 12.3768 -1.12219 -1.87406	14.3752	-1.66256	-0.00137213 12.3873 0.296195 -5.28481	7.86211	-0.399023	0.0883157 12.5016 0.82912 0.997847	8.57992	1.1403	-1 10.1794 0.943522 2.0119	-3.60884	1.7405	0.667525 10.2797 -1.57149 0.36489	-2.67229	0.771906	0.0883157 12.5016 0.82912 -15	0	-0	20.61 4.45006 1.43784 40.9554	-62.2872	176.487	0 -30.3438 0 -0	63.8012	-0	0 -18.964 0 1.01451e-015	3.40114e-015	-55.8415	0 -9.48199 0 1.22245	4.37968	-2.58917e-014	0 -3.17138 0 -0	7.12502	-0	0 -9.48199 0 25	15	-1.36605e-015	0.0883157 12.5016 0.82912 15	0	-0	-20.61 4.45 1.44 -23.6149	-6.72266	-164.672	0 -29.5102 0 -0	72.5368	-0	0 -19.2342 0 1.33231e-015	-4.11361e-015	125.892	0 -9.61712 0 1.22	4.38	-0	0 -3.29215 0 -0	7.12502	-0	0 -9.61712 0 25	15	-7.97034e-015	-8.46272 -9.62775 4.76248 -0.25226	-35.6438	0.246837	1.00552e-005 -38.0331 0 -180	81.2306	180	1.14428e-005 -43.2815 0 14.3866	-69.6829	15.2969	0 -14.1868 -3.08763 -0	-63.7989	-0	9.10607 -9.62778 4.76249 4.22436	-53.2693	11.6107	-1.01399e-005 -38.3535 0 -0	62.445	-0	-1.12937e-005 -42.7176 0 60.1616	-83.1286	60.3394	0 -13.9965 -2.83857 -0	-15.9283	-0
8.84265	89.1213	141.152	-2.40956	12.3597	-12.5124	0 0 0 5.34808	13.136	-1.25165	-0.214371 12.3768 -1.12219 -2.0052	14.391	-1.72416	-0.00137213 12.3873 0.296195 -5.31555	7.95313	-0.436916	0.0883157 12.5016 0.82912 1.16544	8.46892	1.1922	-1 10.1794 0.943522 1.88589	-2.85694	1.79773	0.667525 10.2797 -1.57149 0.298195	-2.39279	0.810336	0.0883157 12.5016 0.82912 -15	0	-0	20.61 4.45006 1.43784 40.5475	-61.8112	176.036	0 -30.3438 0 -0	63.5865	-0	0 -18.964 0 1.01448e-015	3.40117e-015	-55.8411	0 -9.48199 0 1.22245	4.37968	-2.58917e-014	0 -3.17138 0 -0	7.12502	-0	0 -9.48199 0 25	15	-1.36605e-015	0.0883157 12.5016 0.82912 15	0	-0	-20.61 4.45 1.44 -23.5294	-6.49951	-164.553	0 -29.5102 0 -0	72.7633	-0	0 -19.2342 0 1.33221e-015	-4.11347e-015	125.891	0 -9.61712 0 1.22	4.38	-0	0 -3.29215 0 -0	7.12502	-0	0 -9.61712 0 25	15	-7.97034e-015	-8.46272 -9.62775 4.76248 -0.957577	-37.3909	-0.276757	1.00552e-005 -38.0331 0 -180	78.9942	180	1.14428e-005 -43.2815 0 14.3536	-70.7736	15.1627	0 -14.1868 -3.08763 -0	-64.1653	-0	9.10607 -9.62778 4.76249 3.98703	-51.9223	12.1274	-1.01399e-005 -38.3535 0 -0	62.3537	-0	-1.12937e-005 -42.7176 0 61.722	-83.743	61.8644	0 -13.9965 -2.83857 -0	-15.9378	-0
8.84562	89.1732	141.71	-2.18953	11.5654	-12.5607	0 0 0 5.13703	12.9647	-1.29499	-0.214371 12.3768 -1.12219 -2.13905	14.3987	-1.79797	-0.00137213 12.3873 0.296195 -5.35135	8.04334	-0.480451	0.0883157 12.5016 0.82912 1.35815	8.3332	1.24565	-1 10.1794 0.943522 1.7632	-2.05545	1.85728	0.667525 10.2797 -1.57149 0.230314	-2.09601	0.850234	0.0883157 12.5016 0.82912 -15	0	-0	20.61 4.45006 1.43784 40.1158	-61.3016	175.558	0 -30.3438 0 -0	63.4021	-0	0 -18.964 0 1.01436e-015	3.40135e-015	-55.8391	0 -9.48199 0 1.22245	4.37968	-2.58917e-014	0 -3.17138 0 -0	7.12502	-0	0 -9.48199 0 25	15	-1.36605e-015	0.0883157 12.5016 0.82912 15	0	-0	-20.61 4.45 1.44 -23.4422	-6.23143	-164.442	0 -29.5102 0 -0	73.0053	-0	0 -19.2342 0 1.33214e-015	-4.11338e-015	125.89	0 -9.61712 0 1.22	4.38	-0	0 -3.29215 0 -0	7.12502	-0	0 -9.61712 0 25	15	-7.97034e-015	-8.46272 -9.62775 4.76248 -1.69661	-39.1067	-0.827955	1.00552e-005 -38.0331 0 -180	76.9487	180	1.14428e-005 -43.2815 0 14.4102	-71.8125	15.1333	0 -14.1868 -3.08763 -0	-64.496	-0	9.10607 -9.62778 4.76249 3.72281	-50.5657	12.6556	-1.01399e-005 -38.3535 0 -0	62.2864	-0	-1.12937e-005 -42.7176 0 63.6095	-84.3737	63.7193	0 -13.9965 -2.83857 -0	-15.9655	-0
8.84202	89.2025	142.275	-1.96668	10.7561	-12.5643	0 0 0 4.9304	12.775	-1.34793	-0.214371 12.3768 -1.12219 -2.27514	14.3983	-1.88283	-0.00137213 12.3873 0.296195 -5.3932	8.13335	-0.528831	0.0883157 12.5016 0.82912 1.57556	8.1724	1.29873	-1 10.1794 0.943522 1.64467	-1.20455	1.91625	0.667525 10.2797 -1.57149 0.161925	-1.78279	0.890293	0.0883157 12.5016 0.82912 -15	0	-0	20.61 4.45006 1.43784 39.6646	-60.7617	175.053	0 -30.3438 0 -0	63.2469	-0	0 -18.964 0 1.01401e-015	3.40187e-015	-55.8332	0 -9.48199 0 1.22245	4.37968	-2.58917e-014	0 -3.17138 0 -0	7.12502	-0	0 -9.48199 0 25	15	-1.36605e-015	0.0883157 12.5016 0.82912 15	0	-0	-20.61 4.45 1.44 -23.3531	-5.92277	-164.34	0 -29.5102 0 -0	73.2531	-0	0 -19.2342 0 1.33209e-015	-4.1133e-015	125.889	0 -9.61712 0 1.22	4.38	-0	0 -3.29215 0 -0	7.12502	-0	0 -9.61712 0 25	15	-7.97034e-015	-8.46272 -9.62775 4.76248 -2.45619	-40.781	-1.3925	1.00552e-005 -38.0331 0 -180	75.1135	180	1.14428e-005 -43.2815 0 14.5579	-72.788	15.2087	0 -14.1868 -3.08763 -0	-64.8	-0	9.10607 -9.62778 4.76249 3.4275	-49.2021	13.1757	-1.01399e-005 -38.3535 0 -0	62.2401	-0	-1.12937e-005 -42.7176 0 65.9975	-85.007	66.0782	0 -13.9965 -2.83857 -0	-16.006	-0
8.83028	89.2127	142.846	-1.74387	9.93515	-12.5231	0 0 0 4.73053	12.5669	-1.40936	-0.214371 12.3768 -1.12219 -2.4131	14.3903	-1.97718	-0.00137213 12.3873 0.296195 -5.44219	8.22401	-0.581035	0.0883157 12.5016 0.82912 1.8158	7.98752	1.34945	-1 10.1794 0.943522 1.53103	-0.30674	1.97159	0.667525 10.2797 -1.57149 0.0936852	-1.45427	0.929106	0.0883157 12.5016 0.82912 -15	0	-0	20.61 4.45006 1.43784 39.1986	-60.1951	174.521	0 -30.3438 0 -0	63.1185	-0	0 -18.964 0 1.01354e-015	3.40256e-015	-55.8253	0 -9.48199 0 1.22245	4.37968	-2.58917e-014	0 -3.17138 0 -0	7.12502	-0	0 -9.48199 0 25	15	-1.36605e-015	0.0883157 12.5016 0.82912 15	0	-0	-20.61 4.45 1.44 -23.2621	-5.57847	-164.245	0 -29.5102 0 -0	73.498	-0	0 -19.2342 0 1.33203e-015	-4.11322e-015	125.888	0 -9.61712 0 1.22	4.38	-0	0 -3.29215 0 -0	7.12502	-0	0 -9.61712 0 25	15	-7.97034e-015	-8.46272 -9.62775 4.76248 -3.21992	-42.4042	-1.95353	1.00552e-005 -38.0331 0 -180	73.5032	180	1.14428e-005 -43.2815 0 14.785	-73.695	15.3751	0 -14.1868 -3.08763 -0	-65.0871	-0	9.10607 -9.62778 4.76249 3.09933	-47.8334	13.6705	-1.01399e-005 -38.3535 0 -0	62.2107	-0	-1.12937e-005 -42.7176 0 69.1419	-85.6271	69.1973	0 -13.9965 -2.83857 -0	-16.0559	-0
8.8117	89.2048	143.425	-1.52384	9.10544	-12.4387	0 0 0 4.53962	12.3404	-1.47785	-0.214371 12.3768 -1.12219 -2.55268	14.3753	-2.07907	-0.00137213 12.3873 0.296195 -5.49939	8.31627	-0.635877	0.0883157 12.5016 0.82912 2.07545	7.78079	1.39594	-1 10.1794 0.943522 1.42288	0.633382	2.02032	0.667525 10.2797 -1.57149 0.0262535	-1.11191	0.965271	0.0883157 12.5016 0.82912 -15	0	-0	20.61 4.45006 1.43784 38.722	-59.6052	173.966	0 -30.3438 0 -0	63.0134	-0	0 -18.964 0 1.01303e-015	3.40332e-015	-55.8166	0 -9.48199 0 1.22245	4.37968	-2.58917e-014	0 -3.17138 0 -0	7.12502	-0	0 -9.48199 0 25	15	-1.36605e-015	0.0883157 12.5016 0.82912 15	0	-0	-20.61 4.45 1.44 -23.1691	-5.20373	-164.156	0 -29.5102 0 -0	73.7324	-0	0 -19.2342 0 1.33195e-015	-4.11311e-015	125.887	0 -9.61712 0 1.22	4.38	-0	0 -3.29215 0 -0	7.12502	-0	0 -9.61712 0 25	15	-7.97034e-015	-8.46272 -9.62775 4.76248 -3.96857	-43.9669	-2.49187	1.00552e-005 -38.0331 0 -180	72.1285	180	1.14428e-005 -43.2815 0 15.0656	-74.5339	15.6038	0 -14.1868 -3.08763 -0	-65.3665	-0	9.10607 -9.62778 4.76249 2.73886	-46.46	14.1257	-1.01399e-005 -38.3535 0 -0	62.1936	-0	-1.12937e-005 -42.7176 0 73.4143	-86.2151	73.4484	0 -13.9965 -2.83857 -0	-16.1137	-0
8.78556	89.1839	144.014	-1.3091	8.26924	-12.3147	0 0 0 4.35957	12.096	-1.55175	-0.214371 12.3768 -1.12219 -2.6937	14.3541	-2.18633	-0.00137213 12.3873 0.296195 -5.5658	8.41096	-0.69208	0.0883157 12.5016 0.82912 2.34966	7.55552	1.43656	-1 10.1794 0.943522 1.3208	1.60959	2.0598	0.667525 10.2797 -1.57149 -0.0396955	-0.757431	0.997502	0.0883157 12.5016 0.82912 -15	0	-0	20.61 4.45006 1.43784 38.2387	-58.995	173.388	0 -30.3438 0 -0	62.9271	-0	0 -18.964 0 1.01252e-015	3.40406e-015	-55.8081	0 -9.48199 0 1.22245	4.37968	-2.58917e-014	0 -3.17138 0 -0	7.12502	-0	0 -9.48199 0 25	15	-1.36605e-015	0.0883157 12.5016 0.82912 15	0	-0	-20.61 4.45 1.44 -23.0747	-4.80384	-164.071	0 -29.5102 0 -0	73.9496	-0	0 -19.2342 0 1.33173e-015	-4.11282e-015	125.884	0 -9.61712 0 1.22	4.38	-0	0 -3.29215 0 -0	7.12502	-0	0 -9.61712 0 25	15	-7.97034e-015	-8.46272 -9.62775 4.76248 -4.68082	-45.46	-2.98653	1.00552e-005 -38.0331 0 -180	70.9957	180	1.14428e-005 -43.2815 0 15.3595	-75.3087	15.8522	0 -14.1868 -3.08763 -0	-65.6449	-0	9.10607 -9.62778 4.76249 2.34856	-45.0815	14.5306	-1.01399e-005 -38.3535 0 -0	62.1836	-0	-1.12937e-005 -42.7176 0 79.3245	-86.7477	79.3411	0 -13.9965 -2.83857 -0	-16.1808	-0
